<svg xmlns="http://www.w3.org/2000/svg" xmlns:xlink="http://www.w3.org/1999/xlink" width="300" zoomAndPan="magnify" viewBox="0 0 224.87999 225" height="300" preserveAspectRatio="xMidYMid meet" version="1.0"><defs><clipPath id="11b7b7cfa8"><path d="M 15.59375 0.0585938 L 194.746094 0.0585938 L 194.746094 224.9375 L 15.59375 224.9375 Z M 15.59375 0.0585938 " clip-rule="nonzero"/></clipPath><clipPath id="4571eddfc2"><path d="M 15.59375 33 L 194.746094 33 L 194.746094 138 L 15.59375 138 Z M 15.59375 33 " clip-rule="nonzero"/></clipPath></defs><g clip-path="url(#11b7b7cfa8)"><path fill="#f7e7d8" d="M 192.070312 43.820312 C 189.019531 39.570312 185.058594 36.453125 179.839844 35.214844 C 178.59375 34.917969 177.289062 34.765625 176.113281 34.289062 C 174.019531 33.445312 171.847656 33.359375 169.652344 33.226562 C 164.796875 32.929688 160.230469 34.425781 155.609375 35.515625 C 152.683594 36.203125 149.984375 37.5625 147.261719 38.816406 C 147.195312 38.683594 147.042969 38.511719 147.078125 38.429688 C 147.910156 36.640625 149.257812 35.175781 150.082031 33.34375 C 150.894531 31.535156 152.238281 29.964844 153.359375 28.296875 C 154.21875 27.015625 154.988281 25.648438 155.996094 24.492188 C 157.851562 22.367188 159.792969 20.34375 161.371094 17.964844 C 162.941406 15.601562 164.488281 13.246094 165.648438 10.652344 C 166.503906 8.734375 166.933594 6.804688 165.980469 4.757812 C 165.691406 4.128906 165.417969 3.589844 164.714844 3.441406 C 163.152344 3.109375 161.59375 2.605469 160.015625 2.523438 C 155.804688 2.304688 151.582031 2.277344 147.363281 2.15625 C 144.148438 2.0625 140.933594 1.964844 137.71875 1.824219 C 137.148438 1.800781 136.523438 1.683594 136.03125 1.414062 C 134.414062 0.53125 132.609375 0.300781 130.902344 0.40625 C 129.074219 0.519531 127.246094 1.128906 125.496094 1.746094 C 123.578125 2.421875 121.777344 3.417969 119.878906 4.152344 C 118.796875 4.566406 117.574219 5.082031 116.496094 4.9375 C 114.550781 4.679688 112.621094 4.101562 111.171875 2.539062 C 110.671875 2 109.984375 1.628906 109.375 1.191406 C 108.03125 0.226562 106.5 0.175781 104.914062 0.199219 C 102.28125 0.238281 99.679688 0.390625 97.152344 1.210938 C 94.425781 2.089844 92.054688 3.648438 89.570312 5.003906 C 88.507812 5.585938 87.351562 6.097656 86.171875 6.347656 C 82.859375 7.054688 79.585938 6.785156 76.40625 5.558594 C 76.207031 5.480469 75.992188 5.433594 75.78125 5.40625 C 73.980469 5.179688 72.160156 5.054688 70.382812 4.714844 C 68.300781 4.316406 66.140625 4.167969 64.339844 2.769531 C 63.191406 1.875 61.886719 2.394531 60.695312 2.8125 C 60.371094 2.925781 60.136719 3.40625 59.941406 3.761719 C 59.257812 5.007812 59.339844 6.308594 59.628906 7.660156 C 60.070312 9.695312 60.253906 11.792969 60.820312 13.789062 C 61.734375 17.027344 63.261719 20.070312 63.855469 23.425781 C 64.160156 25.164062 64.738281 26.851562 65.101562 28.578125 C 65.597656 30.929688 65.976562 33.300781 66.457031 35.652344 C 67.09375 38.773438 68.640625 41.460938 70.519531 43.980469 C 71.769531 45.65625 72.957031 47.371094 74.171875 49.070312 C 72.722656 48.730469 71.261719 48.4375 69.828125 48.050781 C 64.285156 46.554688 58.746094 45.191406 52.964844 44.828125 C 47.808594 44.503906 42.730469 44.652344 37.625 45.457031 C 31.746094 46.386719 26.578125 48.726562 21.972656 52.460938 C 19.292969 54.632812 17.742188 57.542969 16.40625 60.609375 C 16.152344 61.1875 16.046875 61.847656 15.980469 62.484375 C 15.59375 66.140625 16.421875 69.640625 17.457031 73.097656 C 17.605469 73.597656 17.96875 74.046875 18.296875 74.46875 C 19.882812 76.484375 21.441406 78.527344 23.113281 80.472656 C 24.078125 81.601562 25.117188 82.75 26.339844 83.554688 C 28.753906 85.148438 31.484375 86.15625 34.167969 87.203125 C 36.203125 87.996094 38.277344 88.722656 40.382812 89.308594 C 42.386719 89.863281 44.4375 90.355469 46.558594 90.082031 C 48.679688 89.808594 50.804688 89.546875 52.910156 89.171875 C 54.917969 88.816406 56.9375 88.445312 58.882812 87.859375 C 61.546875 87.054688 64.144531 86.035156 66.773438 85.109375 C 69.457031 84.167969 72.140625 83.230469 74.824219 82.292969 C 74.820312 82.429688 74.816406 82.566406 74.8125 82.707031 C 72.257812 85.074219 69.703125 87.4375 67.152344 89.808594 C 65.382812 91.453125 63.550781 93.039062 61.867188 94.765625 C 58.347656 98.378906 54.902344 102.0625 51.4375 105.726562 C 49.628906 107.632812 47.773438 109.503906 46.0625 111.5 C 44.671875 113.121094 43.441406 114.878906 42.183594 116.609375 C 39.574219 120.210938 36.777344 123.691406 34.605469 127.597656 C 33.75 129.140625 32.925781 130.722656 32.75 132.527344 C 32.726562 132.742188 32.832031 133.035156 32.984375 133.175781 C 33.085938 133.265625 33.390625 133.191406 33.574219 133.117188 C 33.703125 133.066406 33.777344 132.878906 33.886719 132.769531 C 34.832031 131.828125 35.757812 130.867188 36.730469 129.953125 C 38.941406 127.867188 41.179688 125.800781 43.40625 123.722656 C 43.800781 123.351562 44.191406 122.980469 44.585938 122.605469 C 44.699219 122.683594 44.808594 122.761719 44.921875 122.835938 C 44.359375 124.261719 43.9375 125.769531 43.199219 127.097656 C 41.566406 130.042969 40.203125 133.054688 39.820312 136.4375 C 39.589844 136.769531 39.261719 137.070312 39.152344 137.433594 C 38.304688 140.3125 37.441406 143.1875 36.695312 146.09375 C 36.269531 147.746094 35.796875 149.453125 35.800781 151.136719 C 35.808594 154.832031 35.410156 158.527344 35.738281 162.222656 C 35.96875 164.835938 35.945312 167.507812 36.503906 170.046875 C 37.261719 173.5 37.25 177.066406 38.296875 180.464844 C 38.953125 182.605469 39.214844 184.890625 40.046875 186.953125 C 41.339844 190.167969 42.453125 193.460938 44.058594 196.5625 C 46.007812 200.320312 47.691406 204.214844 49.523438 208.035156 C 50.300781 209.65625 51.308594 211.144531 53.007812 211.894531 C 54.417969 212.515625 55.515625 213.5 56.628906 214.5 C 56.945312 214.785156 57.230469 215.140625 57.597656 215.34375 C 59.789062 216.578125 61.988281 217.804688 64.214844 218.976562 C 64.824219 219.296875 65.523438 219.457031 66.195312 219.628906 C 68.988281 220.351562 71.785156 221.0625 74.585938 221.75 C 75.414062 221.953125 76.273438 222.214844 77.105469 222.1875 C 81.613281 222.019531 86.082031 222.566406 90.5625 222.867188 C 92.144531 222.972656 93.726562 223.121094 95.3125 223.164062 C 97.269531 223.21875 99.230469 223.226562 101.1875 223.179688 C 102.902344 223.140625 104.613281 222.878906 106.316406 222.9375 C 108.878906 223.023438 111.4375 223.257812 113.988281 223.503906 C 116.785156 223.773438 119.574219 224.160156 122.367188 224.433594 C 124.234375 224.613281 126.109375 224.785156 127.976562 224.773438 C 131.410156 224.75 134.839844 224.601562 138.273438 224.480469 C 142.492188 224.335938 146.644531 223.898438 150.675781 222.4375 C 153.640625 221.359375 156.359375 219.929688 158.835938 217.992188 C 159.5 217.472656 160.144531 216.882812 160.890625 216.53125 C 163.769531 215.179688 165.984375 213.003906 167.929688 210.617188 C 169.125 209.152344 169.828125 207.285156 170.742188 205.59375 C 171.121094 204.886719 171.429688 204.136719 171.859375 203.460938 C 172.511719 202.429688 173.53125 201.527344 173.859375 200.414062 C 174.304688 198.914062 174.992188 197.574219 175.691406 196.222656 C 176.546875 194.566406 177.507812 192.964844 178.382812 191.320312 C 178.988281 190.183594 179.664062 189.0625 180.066406 187.851562 C 181.527344 183.464844 183.429688 179.269531 185.398438 175.105469 C 186.449219 172.882812 186.929688 170.542969 187.21875 168.148438 C 187.394531 166.710938 187.394531 165.257812 187.597656 163.828125 C 187.929688 161.476562 188.253906 159.144531 187.292969 156.851562 C 187.195312 156.617188 187.25 156.320312 187.222656 156.050781 C 187.003906 153.8125 186.867188 151.5625 186.535156 149.34375 C 186.28125 147.660156 185.691406 146.03125 185.402344 144.351562 C 185.082031 142.496094 184.050781 140.980469 183.304688 139.324219 C 182.175781 136.832031 181.046875 134.335938 179.953125 131.828125 C 179.226562 130.164062 178.492188 128.496094 177.882812 126.785156 C 177.21875 124.914062 176.359375 123.152344 175.339844 121.453125 C 174.542969 120.132812 173.816406 118.765625 172.988281 117.464844 C 171.355469 114.882812 169.898438 112.195312 167.761719 109.949219 C 166.285156 108.398438 165.003906 106.667969 163.628906 105.023438 C 162.21875 103.335938 160.765625 101.683594 159.394531 99.96875 C 158.5 98.847656 157.308594 97.933594 156.882812 96.476562 C 159.71875 98.664062 162.632812 100.757812 165.367188 103.070312 C 168.757812 105.941406 171.960938 109.027344 175.3125 111.949219 C 177.199219 113.59375 179.207031 115.101562 181.167969 116.664062 C 181.671875 117.0625 182.15625 117.511719 182.71875 117.808594 C 183.863281 118.40625 184.675781 117.945312 184.59375 116.667969 C 184.546875 115.898438 184.253906 115.097656 183.898438 114.398438 C 182.980469 112.585938 181.972656 110.820312 180.996094 109.039062 C 180.914062 108.8125 180.828125 108.585938 180.746094 108.359375 C 180.90625 108.519531 181.070312 108.675781 181.234375 108.832031 C 182.238281 109.617188 183.242188 110.402344 184.242188 111.199219 C 184.828125 111.667969 185.390625 112.167969 185.992188 112.617188 C 186.136719 112.722656 186.4375 112.753906 186.585938 112.671875 C 186.695312 112.613281 186.757812 112.289062 186.707031 112.128906 C 186.464844 111.421875 186.234375 110.699219 185.898438 110.039062 C 183.828125 105.996094 180.804688 102.746094 177.410156 99.808594 C 174.574219 97.355469 171.789062 94.835938 168.886719 92.464844 C 167.027344 90.945312 165.058594 89.53125 163.019531 88.261719 C 159.800781 86.253906 156.484375 84.40625 153.203125 82.5 C 148.699219 79.878906 143.972656 77.742188 139.050781 76.035156 C 138.011719 75.675781 136.988281 75.269531 135.871094 74.851562 C 136.09375 74.6875 136.175781 74.574219 136.246094 74.582031 C 138.53125 74.828125 140.808594 75.121094 143.09375 75.328125 C 145.703125 75.5625 148.324219 75.734375 150.941406 75.90625 C 151.902344 75.96875 152.875 75.902344 153.832031 75.988281 C 157.105469 76.289062 160.378906 76.097656 163.617188 75.710938 C 166.351562 75.386719 169.035156 74.648438 171.761719 74.214844 C 174.773438 73.738281 177.582031 72.605469 180.304688 71.378906 C 183.285156 70.03125 185.949219 68.066406 188.316406 65.769531 C 190.09375 64.039062 191.539062 62.09375 192.453125 59.71875 C 193.3125 57.480469 193.695312 55.171875 194.132812 52.847656 C 194.761719 49.511719 193.96875 46.464844 192.070312 43.820312 Z M 69.554688 75.460938 C 66.679688 76.664062 63.695312 77.410156 60.628906 77.917969 C 59.527344 78.101562 58.460938 78.492188 57.363281 78.734375 C 55.746094 79.089844 54.121094 79.4375 52.488281 79.703125 C 51.761719 79.820312 51.003906 79.710938 50.261719 79.75 C 46.582031 79.933594 42.894531 80.671875 39.238281 79.542969 C 37.039062 78.863281 34.804688 78.277344 32.640625 77.492188 C 31.65625 77.132812 30.640625 76.554688 29.9375 75.796875 C 28.496094 74.242188 26.859375 72.859375 25.804688 70.941406 C 24.246094 68.113281 23.503906 65.171875 24.09375 61.953125 C 24.292969 60.867188 25.066406 60.152344 25.859375 59.53125 C 26.5625 58.976562 27.382812 58.539062 28.207031 58.171875 C 32.890625 56.097656 37.816406 54.871094 42.898438 54.488281 C 44.890625 54.339844 46.933594 54.828125 48.953125 55.035156 C 50.339844 55.179688 51.726562 55.308594 53.109375 55.5 C 54.796875 55.734375 56.492188 55.976562 58.164062 56.296875 C 61.738281 56.988281 65.308594 57.71875 68.871094 58.457031 C 70.378906 58.769531 71.875 59.160156 73.375 59.5 C 77.914062 60.527344 82.4375 61.597656 86.777344 63.328125 C 86.878906 63.511719 86.960938 63.722656 87.058594 63.917969 C 87.152344 64.125 87.214844 64.242188 87.386719 64.386719 C 88.964844 65.707031 90.582031 66.972656 92.1875 68.257812 C 90.292969 68.980469 88.4375 69.835938 86.496094 70.398438 C 84.203125 71.066406 81.839844 71.488281 79.507812 72 C 76.050781 72.761719 72.800781 74.109375 69.554688 75.460938 Z M 183.28125 57.386719 C 181.042969 60.574219 178.277344 63.164062 174.683594 64.691406 C 172.722656 65.527344 170.625 66.058594 168.578125 66.675781 C 164.535156 67.898438 160.394531 68.410156 156.179688 68.144531 C 152.28125 67.898438 148.390625 67.554688 144.496094 67.289062 C 140.539062 67.019531 136.578125 66.789062 132.617188 66.535156 C 132.191406 66.507812 131.769531 66.433594 131.34375 66.378906 C 131.238281 66.382812 131.132812 66.386719 131.027344 66.386719 C 130.285156 66.410156 129.542969 66.429688 128.800781 66.453125 C 128.816406 66.382812 128.832031 66.316406 128.847656 66.246094 C 128.992188 65.628906 129.105469 65 129.28125 64.394531 C 129.347656 64.171875 129.421875 63.953125 129.515625 63.738281 C 129.945312 62.726562 130.625 61.820312 131.109375 60.824219 C 131.375 60.277344 131.457031 59.636719 131.621094 59.035156 C 133.375 57.859375 135.113281 56.652344 136.894531 55.511719 C 138.414062 54.535156 139.980469 53.621094 141.535156 52.699219 C 142.988281 51.835938 144.511719 51.082031 145.90625 50.136719 C 148.445312 48.414062 151.257812 47.273438 154.03125 46.042969 C 155.1875 45.527344 156.304688 44.929688 157.472656 44.445312 C 158.820312 43.882812 160.199219 43.390625 161.570312 42.886719 C 162.859375 42.410156 164.128906 41.839844 165.457031 41.519531 C 166.738281 41.210938 168.105469 40.933594 169.394531 41.050781 C 172.773438 41.355469 176.078125 42.160156 179.1875 43.515625 C 181 44.308594 182.429688 45.667969 183.089844 47.664062 C 183.523438 48.984375 184.050781 50.273438 184.457031 51.601562 C 185.105469 53.726562 184.523438 55.613281 183.28125 57.386719 Z M 183.28125 57.386719 " fill-opacity="1" fill-rule="nonzero"/></g><g clip-path="url(#4571eddfc2)"><path fill="#c29e63" d="M 156.882812 96.476562 C 155.988281 95.800781 155.082031 95.136719 154.199219 94.445312 C 153.074219 93.566406 152.027344 92.574219 150.839844 91.792969 C 148.574219 90.296875 146.285156 88.824219 143.910156 87.511719 C 141.425781 86.144531 138.839844 84.949219 136.273438 83.734375 C 135.164062 83.210938 133.992188 82.796875 132.832031 82.394531 C 130.820312 81.695312 128.789062 81.109375 127.023438 79.796875 C 126.210938 79.191406 125.074219 79.039062 124.117188 78.605469 C 121.929688 77.609375 119.742188 76.597656 117.585938 75.527344 C 116.617188 75.046875 115.894531 75.183594 115.140625 75.9375 C 114.617188 76.453125 114.015625 76.960938 113.351562 77.25 C 111.472656 78.066406 109.722656 77.222656 107.964844 76.652344 C 107.667969 76.554688 107.394531 76.367188 107.113281 76.21875 C 106.515625 75.90625 106.101562 75.996094 105.59375 76.542969 C 104.804688 77.386719 103.859375 78.085938 102.941406 78.800781 C 102.660156 79.015625 102.246094 79.21875 101.914062 79.1875 C 100.390625 79.035156 98.765625 79.09375 97.496094 78.066406 C 96.933594 77.609375 96.683594 77.84375 96.316406 78.195312 C 93.296875 81.09375 90.304688 84.023438 87.234375 86.871094 C 85.214844 88.746094 83.074219 90.484375 81.011719 92.316406 C 80.167969 93.0625 79.386719 93.882812 78.597656 94.691406 C 77.320312 96.007812 76.039062 97.316406 74.601562 98.46875 C 73.902344 99.027344 73.429688 99.855469 72.78125 100.484375 C 70.046875 103.128906 67.449219 105.886719 65.152344 108.9375 C 63.882812 110.632812 62.28125 112.070312 60.910156 113.691406 C 57.867188 117.273438 54.914062 120.933594 51.847656 124.496094 C 48.957031 127.863281 45.964844 131.148438 43.023438 134.472656 C 42.386719 135.195312 41.796875 135.964844 41.144531 136.671875 C 40.628906 137.230469 40.132812 137.25 39.820312 136.4375 C 40.203125 133.054688 41.566406 130.042969 43.199219 127.097656 C 43.9375 125.769531 44.359375 124.261719 44.921875 122.835938 C 44.8125 122.761719 44.699219 122.683594 44.585938 122.605469 C 44.191406 122.980469 43.800781 123.351562 43.40625 123.722656 C 41.179688 125.800781 38.945312 127.867188 36.730469 129.953125 C 35.761719 130.867188 34.832031 131.828125 33.886719 132.769531 C 33.777344 132.878906 33.707031 133.066406 33.578125 133.117188 C 33.390625 133.191406 33.085938 133.265625 32.984375 133.175781 C 32.832031 133.035156 32.726562 132.742188 32.75 132.527344 C 32.925781 130.722656 33.75 129.140625 34.609375 127.597656 C 36.777344 123.691406 39.574219 120.210938 42.183594 116.609375 C 43.441406 114.878906 44.675781 113.121094 46.0625 111.5 C 47.773438 109.503906 49.628906 107.632812 51.4375 105.726562 C 54.902344 102.0625 58.347656 98.378906 61.867188 94.765625 C 63.554688 93.039062 65.382812 91.453125 67.152344 89.808594 C 69.703125 87.4375 72.257812 85.074219 74.8125 82.707031 L 74.824219 82.292969 C 72.140625 83.230469 69.457031 84.167969 66.773438 85.109375 C 64.144531 86.035156 61.546875 87.054688 58.882812 87.859375 C 56.9375 88.445312 54.917969 88.816406 52.910156 89.171875 C 50.804688 89.546875 48.679688 89.808594 46.558594 90.082031 C 44.441406 90.355469 42.386719 89.863281 40.382812 89.308594 C 38.277344 88.722656 36.207031 87.996094 34.167969 87.203125 C 31.484375 86.15625 28.753906 85.148438 26.34375 83.554688 C 25.117188 82.75 24.082031 81.601562 23.113281 80.472656 C 21.441406 78.527344 19.882812 76.484375 18.296875 74.46875 C 17.96875 74.046875 17.605469 73.597656 17.457031 73.097656 C 16.421875 69.640625 15.597656 66.140625 15.980469 62.484375 C 16.046875 61.847656 16.152344 61.1875 16.40625 60.609375 C 17.742188 57.542969 19.296875 54.632812 21.976562 52.460938 C 26.578125 48.726562 31.746094 46.386719 37.628906 45.457031 C 42.734375 44.652344 47.808594 44.503906 52.964844 44.828125 C 58.746094 45.191406 64.289062 46.554688 69.828125 48.050781 C 71.265625 48.4375 72.722656 48.730469 74.171875 49.070312 C 76.910156 50.128906 79.652344 51.183594 82.386719 52.25 C 83.035156 52.503906 83.679688 52.773438 84.300781 53.089844 C 85.863281 53.898438 87.371094 54.816406 88.96875 55.539062 C 90.921875 56.425781 92.859375 57.269531 94.464844 58.769531 C 95.613281 59.835938 95.6875 59.75 97.058594 58.820312 C 97.28125 58.667969 97.492188 58.5 97.730469 58.378906 C 98.988281 57.722656 100.167969 56.84375 101.753906 57.503906 C 102.507812 57.816406 103.171875 57.519531 103.636719 56.722656 C 104.371094 55.476562 105.738281 55.101562 106.980469 54.644531 C 107.417969 54.480469 108.042969 54.65625 108.53125 54.828125 C 109.371094 55.128906 110.199219 55.496094 110.984375 55.929688 C 111.574219 56.253906 112.085938 56.722656 112.632812 57.125 C 112.289062 58.5 112.601562 59.878906 112.601562 61.257812 C 112.601562 64.304688 112.585938 67.351562 112.613281 70.398438 C 112.621094 70.921875 112.746094 71.460938 112.921875 71.949219 C 113.015625 72.203125 113.351562 72.371094 113.578125 72.574219 C 113.804688 72.320312 114.105469 72.101562 114.242188 71.808594 C 114.414062 71.425781 114.515625 70.988281 114.542969 70.570312 C 114.675781 68.328125 114.839844 66.085938 114.867188 63.839844 C 114.894531 61.804688 114.589844 59.792969 113.890625 57.859375 C 114.707031 57.515625 115.4375 57.628906 116.128906 58.199219 C 116.457031 58.46875 116.921875 58.589844 117.203125 58.894531 C 117.847656 59.578125 118.253906 59.257812 118.757812 58.714844 C 119.992188 57.386719 121.28125 56.109375 122.53125 54.796875 C 125.699219 51.480469 129.421875 48.875 133.25 46.417969 C 135.171875 45.183594 137.25 44.195312 139.183594 42.980469 C 141.765625 41.363281 144.445312 39.960938 147.261719 38.816406 C 149.984375 37.5625 152.683594 36.203125 155.613281 35.515625 C 160.234375 34.425781 164.796875 32.929688 169.65625 33.226562 C 171.847656 33.359375 174.019531 33.445312 176.113281 34.289062 C 177.289062 34.765625 178.59375 34.917969 179.84375 35.214844 C 185.0625 36.453125 189.019531 39.570312 192.074219 43.820312 C 193.972656 46.464844 194.761719 49.515625 194.136719 52.847656 C 193.699219 55.171875 193.316406 57.480469 192.457031 59.71875 C 191.542969 62.097656 190.097656 64.042969 188.316406 65.769531 C 185.953125 68.070312 183.285156 70.03125 180.304688 71.378906 C 177.585938 72.609375 174.777344 73.738281 171.765625 74.21875 C 169.039062 74.648438 166.355469 75.390625 163.621094 75.714844 C 160.378906 76.097656 157.109375 76.292969 153.835938 75.992188 C 152.878906 75.902344 151.90625 75.972656 150.941406 75.910156 C 148.324219 75.734375 145.707031 75.5625 143.097656 75.328125 C 140.8125 75.121094 138.53125 74.828125 136.25 74.585938 C 136.179688 74.578125 136.097656 74.6875 135.875 74.851562 C 136.992188 75.269531 138.015625 75.679688 139.050781 76.039062 C 143.976562 77.742188 148.699219 79.882812 153.207031 82.5 C 156.488281 84.40625 159.804688 86.253906 163.023438 88.261719 C 165.0625 89.53125 167.03125 90.949219 168.890625 92.46875 C 171.792969 94.839844 174.578125 97.355469 177.414062 99.808594 C 180.808594 102.746094 183.832031 106 185.902344 110.039062 C 186.238281 110.703125 186.46875 111.421875 186.707031 112.132812 C 186.761719 112.289062 186.699219 112.617188 186.589844 112.675781 C 186.441406 112.753906 186.140625 112.722656 185.996094 112.617188 C 185.394531 112.167969 184.832031 111.667969 184.246094 111.199219 C 183.246094 110.40625 182.238281 109.621094 181.234375 108.832031 C 181.074219 108.675781 180.910156 108.519531 180.746094 108.363281 C 180.832031 108.585938 180.917969 108.8125 181 109.039062 C 181.972656 110.824219 182.984375 112.585938 183.902344 114.402344 C 184.257812 115.101562 184.550781 115.898438 184.597656 116.667969 C 184.679688 117.945312 183.867188 118.410156 182.71875 117.808594 C 182.160156 117.515625 181.675781 117.066406 181.171875 116.664062 C 179.210938 115.101562 177.203125 113.597656 175.3125 111.949219 C 171.964844 109.027344 168.761719 105.941406 165.367188 103.070312 C 162.632812 100.757812 159.71875 98.664062 156.882812 96.476562 Z M 131.027344 66.390625 C 131.132812 66.386719 131.238281 66.382812 131.34375 66.378906 C 131.769531 66.433594 132.191406 66.507812 132.617188 66.535156 C 136.578125 66.789062 140.539062 67.019531 144.496094 67.289062 C 148.390625 67.554688 152.28125 67.898438 156.179688 68.144531 C 160.394531 68.410156 164.535156 67.898438 168.578125 66.675781 C 170.625 66.058594 172.722656 65.527344 174.683594 64.695312 C 178.277344 63.164062 181.042969 60.578125 183.28125 57.386719 C 184.523438 55.613281 185.105469 53.726562 184.457031 51.601562 C 184.054688 50.277344 183.527344 48.984375 183.09375 47.667969 C 182.433594 45.667969 181 44.3125 179.1875 43.519531 C 176.078125 42.160156 172.773438 41.359375 169.398438 41.054688 C 168.105469 40.9375 166.738281 41.210938 165.457031 41.519531 C 164.128906 41.839844 162.859375 42.410156 161.570312 42.886719 C 160.199219 43.394531 158.820312 43.882812 157.472656 44.445312 C 156.308594 44.933594 155.1875 45.53125 154.03125 46.042969 C 151.257812 47.277344 148.445312 48.417969 145.90625 50.136719 C 144.511719 51.082031 142.992188 51.839844 141.539062 52.699219 C 139.980469 53.625 138.417969 54.535156 136.894531 55.515625 C 135.117188 56.65625 133.378906 57.859375 131.621094 59.039062 C 129.894531 59.972656 128.027344 60.609375 126.429688 61.835938 C 125.089844 62.863281 123.601562 63.726562 122.09375 64.496094 C 121.375 64.863281 121.324219 65.210938 121.492188 65.859375 C 121.6875 66.632812 122.195312 66.894531 122.910156 66.851562 C 124.875 66.730469 126.839844 66.585938 128.800781 66.453125 C 129.542969 66.429688 130.285156 66.410156 131.027344 66.390625 Z M 92.1875 68.257812 C 92.742188 68.070312 93.296875 67.882812 93.847656 67.695312 C 94.84375 67.359375 94.722656 66.425781 94.835938 65.683594 C 94.957031 64.894531 94.203125 64.800781 93.671875 64.597656 C 93.328125 64.464844 92.964844 64.363281 92.601562 64.296875 C 91.449219 64.089844 90.289062 63.898438 89.132812 63.707031 C 88.347656 63.574219 87.5625 63.453125 86.777344 63.328125 C 82.4375 61.597656 77.914062 60.527344 73.378906 59.5 C 71.875 59.160156 70.378906 58.769531 68.871094 58.457031 C 65.308594 57.71875 61.738281 56.988281 58.164062 56.300781 C 56.492188 55.976562 54.796875 55.734375 53.109375 55.5 C 51.726562 55.308594 50.339844 55.179688 48.953125 55.035156 C 46.933594 54.828125 44.890625 54.339844 42.898438 54.492188 C 37.8125 54.871094 32.890625 56.097656 28.207031 58.171875 C 27.382812 58.539062 26.5625 58.976562 25.859375 59.53125 C 25.066406 60.152344 24.292969 60.867188 24.09375 61.957031 C 23.503906 65.171875 24.246094 68.117188 25.804688 70.945312 C 26.859375 72.859375 28.496094 74.242188 29.9375 75.796875 C 30.640625 76.554688 31.65625 77.132812 32.640625 77.492188 C 34.800781 78.277344 37.035156 78.863281 39.238281 79.546875 C 42.894531 80.671875 46.582031 79.933594 50.261719 79.75 C 51.003906 79.710938 51.761719 79.824219 52.488281 79.703125 C 54.121094 79.4375 55.746094 79.089844 57.363281 78.734375 C 58.457031 78.492188 59.527344 78.101562 60.628906 77.917969 C 63.695312 77.414062 66.679688 76.664062 69.554688 75.460938 C 72.800781 74.109375 76.050781 72.761719 79.503906 72 C 81.839844 71.488281 84.203125 71.066406 86.496094 70.398438 C 88.4375 69.835938 90.292969 68.980469 92.1875 68.257812 Z M 104.75 68.730469 C 104.46875 66.289062 104.28125 63.835938 103.859375 61.421875 C 103.703125 60.535156 103.058594 59.703125 102.515625 58.933594 C 102.183594 58.457031 101.785156 58.636719 101.671875 59.234375 C 101.632812 59.445312 101.636719 59.664062 101.640625 59.878906 C 101.753906 63.199219 101.820312 66.519531 102.011719 69.835938 C 102.066406 70.777344 102.449219 71.710938 102.742188 72.625 C 102.984375 73.378906 103.519531 73.910156 104.285156 74.15625 C 104.789062 74.320312 105.257812 73.941406 105.035156 73.507812 C 104.242188 71.972656 104.65625 70.339844 104.75 68.730469 Z M 104.75 68.730469 " fill-opacity="1" fill-rule="nonzero"/></g><path fill="#be795a" d="M 174.25 172.511719 C 173.792969 173.707031 173.289062 174.882812 172.800781 176.0625 C 172.78125 175.992188 172.761719 175.921875 172.738281 175.847656 C 172.761719 175.921875 172.78125 175.992188 172.800781 176.0625 C 172.734375 176.445312 172.664062 176.824219 172.597656 177.207031 C 172.386719 178.621094 172.195312 180.039062 171.953125 181.449219 C 171.90625 181.726562 171.660156 181.972656 171.507812 182.234375 C 170.582031 185.359375 170.179688 188.6875 168.542969 191.546875 C 167.25 193.808594 165.925781 196.117188 163.9375 197.90625 C 161.425781 200.171875 158.972656 202.503906 156.382812 204.675781 C 154.128906 206.5625 151.398438 207.59375 148.617188 208.460938 C 148.265625 208.570312 147.878906 208.617188 147.507812 208.605469 C 145.652344 208.554688 143.890625 208.988281 142.136719 209.546875 C 141.589844 209.71875 140.992188 209.734375 140.417969 209.820312 C 139.273438 210.257812 138.09375 210.625 136.984375 211.148438 C 132.972656 213.042969 128.757812 213.757812 124.351562 213.539062 C 123.441406 213.492188 122.527344 213.480469 121.617188 213.53125 C 118.183594 213.726562 115.085938 212.539062 112.011719 211.242188 C 110.484375 210.597656 108.914062 210.035156 107.457031 209.253906 C 105.574219 208.246094 103.789062 207.058594 101.960938 205.945312 C 99.453125 206.480469 96.890625 206.640625 94.386719 207.273438 C 92.644531 207.71875 90.789062 207.707031 88.988281 207.910156 C 86.96875 208.136719 84.960938 208.496094 82.9375 208.582031 C 79.617188 208.714844 76.785156 207.449219 74.394531 205.160156 C 74.554688 205.101562 74.710938 205.058594 74.867188 205.027344 C 74.710938 205.058594 74.554688 205.101562 74.394531 205.160156 C 73.066406 204.488281 71.703125 203.878906 70.421875 203.125 C 68.441406 201.953125 66.515625 200.6875 64.566406 199.457031 C 64.433594 199.371094 64.289062 199.277344 64.1875 199.160156 C 61.671875 196.15625 58.363281 194.109375 55.320312 191.738281 C 54.035156 190.734375 53.175781 189.421875 52.417969 187.941406 C 51.082031 185.324219 49.574219 182.78125 47.964844 180.320312 C 46.96875 178.792969 46.121094 177.246094 46.117188 175.433594 C 46.109375 172.046875 46.144531 168.660156 46.359375 165.285156 C 46.480469 163.429688 46.941406 161.59375 47.90625 159.921875 C 49.183594 157.714844 49.488281 155.164062 50.234375 152.769531 C 50.503906 151.910156 50.785156 151.046875 50.96875 150.167969 C 51.5625 147.335938 52.046875 144.480469 52.71875 141.667969 C 53.0625 140.222656 53.59375 138.789062 54.265625 137.464844 C 55.183594 135.652344 56.316406 133.953125 57.359375 132.207031 C 57.546875 131.03125 58.28125 130.183594 59.066406 129.363281 C 59.734375 124.929688 61.078125 120.710938 63.074219 116.699219 C 63.527344 114.261719 64.921875 112.375 66.703125 110.773438 C 67.777344 109.808594 68.964844 108.964844 70.140625 108.125 C 73.507812 105.710938 76.550781 102.960938 79.128906 99.695312 C 79.71875 98.949219 80.441406 98.296875 81.160156 97.667969 C 81.765625 97.144531 82.484375 96.753906 83.097656 96.238281 C 84.972656 94.664062 87.171875 93.6875 89.421875 92.820312 C 89.898438 92.636719 90.464844 92.683594 90.988281 92.625 C 93.800781 91.425781 96.699219 90.429688 99.710938 89.984375 C 101.425781 89.734375 103.222656 90.027344 104.984375 90.085938 C 105.464844 90.101562 105.945312 90.171875 106.425781 90.164062 C 109.5 90.121094 112.539062 90.441406 115.523438 91.167969 C 116.769531 91.472656 118.050781 91.785156 119.179688 92.363281 C 122.617188 94.117188 126.25 95.527344 129.269531 98.046875 C 129.453125 98.199219 129.691406 98.289062 129.945312 98.363281 C 130.195312 98.433594 130.464844 98.492188 130.707031 98.574219 C 130.757812 98.566406 130.816406 98.539062 130.863281 98.550781 C 133.730469 99.125 136.613281 99.636719 139.195312 101.128906 C 139.84375 101.507812 140.460938 101.957031 141.136719 102.273438 C 143.175781 103.226562 144.824219 104.632812 146.195312 106.398438 C 146.3125 106.488281 146.429688 106.578125 146.550781 106.671875 C 146.550781 106.671875 146.550781 106.664062 146.550781 106.664062 C 146.609375 106.785156 146.671875 106.90625 146.730469 107.027344 C 146.671875 106.90625 146.609375 106.785156 146.550781 106.664062 C 148.660156 107.554688 150.421875 108.964844 152.066406 110.503906 C 155.484375 113.707031 158.507812 117.261719 161.210938 121.097656 C 162.320312 122.675781 163.625 124.113281 164.707031 125.707031 C 166.070312 127.699219 167.335938 129.761719 168.566406 131.839844 C 169.296875 133.078125 169.875 134.402344 170.523438 135.691406 C 170.523438 135.6875 170.527344 135.734375 170.527344 135.734375 C 170.601562 135.871094 170.675781 136.003906 170.753906 136.140625 C 170.78125 136.1875 170.796875 136.246094 170.839844 136.277344 C 172.539062 137.632812 172.40625 139.394531 171.929688 141.226562 C 171.765625 141.847656 171.566406 142.460938 171.371094 143.074219 C 171.101562 143.910156 171.203125 144.707031 171.34375 145.582031 C 171.601562 147.152344 171.546875 148.777344 171.617188 150.378906 C 171.648438 152.085938 171.863281 153.816406 171.660156 155.496094 C 171.40625 157.609375 171.972656 159.511719 172.539062 161.457031 C 173.226562 163.816406 173.941406 166.167969 174.527344 168.550781 C 174.851562 169.863281 174.742188 171.226562 174.25 172.511719 Z M 174.25 172.511719 " fill-opacity="1" fill-rule="nonzero"/><path fill="#95593f" d="M 130.378906 199.257812 C 130.382812 199.253906 130.382812 199.25 130.386719 199.25 C 130.390625 199.246094 130.394531 199.246094 130.402344 199.246094 Z M 148.21875 189.484375 C 149.1875 188.855469 150.140625 188.195312 151.097656 187.546875 C 152 185.738281 153.652344 184.601562 155.023438 183.214844 C 155.207031 183.03125 155.621094 183.074219 155.933594 183.015625 C 155.527344 182.546875 155.632812 182.152344 156.074219 181.773438 C 156.519531 181.390625 157.015625 181.039062 157.363281 180.582031 C 158.972656 178.449219 160.554688 176.296875 162.117188 174.128906 C 162.582031 173.480469 162.992188 172.789062 163.355469 172.078125 C 164.921875 169.039062 166.425781 165.96875 168.011719 162.941406 C 169.363281 160.355469 170.421875 157.6875 170.847656 154.78125 C 171.0625 153.308594 171.359375 151.847656 171.617188 150.378906 C 171.542969 148.777344 171.601562 147.15625 171.34375 145.585938 C 171.199219 144.707031 171.101562 143.914062 171.367188 143.074219 C 171.5625 142.460938 171.761719 141.847656 171.925781 141.226562 C 172.402344 139.398438 172.535156 137.632812 170.835938 136.277344 C 170.796875 136.246094 170.78125 136.1875 170.753906 136.140625 C 170.675781 136.007812 170.601562 135.871094 170.523438 135.738281 C 170.523438 135.734375 170.523438 135.691406 170.523438 135.691406 C 169.769531 135.921875 169.730469 136.410156 169.9375 137.085938 C 170.574219 139.1875 170.726562 141.285156 169.925781 143.40625 C 169.726562 143.929688 169.710938 144.621094 169.875 145.152344 C 170.113281 145.929688 169.992188 146.613281 169.816406 147.355469 C 169.550781 148.5 169.382812 149.667969 169.136719 150.820312 C 168.636719 153.175781 168.289062 155.578125 167.246094 157.785156 C 166.582031 159.191406 165.863281 160.570312 165.136719 161.945312 C 164.007812 164.082031 162.9375 166.25 161.6875 168.3125 C 160.441406 170.367188 159.027344 172.320312 157.648438 174.292969 C 156.738281 175.605469 155.828125 176.929688 154.804688 178.148438 C 153.359375 179.867188 151.832031 181.515625 150.300781 183.160156 C 149.316406 184.214844 148.417969 185.472656 147.214844 186.171875 C 145.074219 187.410156 143.414062 189.253906 141.171875 190.390625 C 138.46875 191.761719 136.074219 193.679688 133.128906 194.679688 C 130.855469 195.449219 128.71875 196.621094 126.5 197.554688 C 126.0625 197.738281 125.519531 197.664062 125.027344 197.707031 C 125.269531 197.246094 125.496094 196.773438 125.757812 196.324219 C 125.835938 196.195312 126.003906 196.121094 126.136719 196.03125 C 128.050781 194.742188 129.984375 193.484375 131.871094 192.160156 C 132.425781 191.769531 132.882812 191.222656 133.328125 190.699219 C 133.78125 190.175781 134.152344 189.582031 134.585938 189.035156 C 136.316406 186.855469 138.148438 184.742188 139.769531 182.476562 C 140.796875 181.046875 141.445312 179.347656 142.375 177.839844 C 145.480469 172.796875 147.238281 167.222656 148.867188 161.589844 C 149.175781 160.523438 149.492188 159.460938 149.804688 158.394531 C 149.464844 156.152344 149.164062 153.910156 149.753906 151.660156 C 148.988281 151.671875 148.808594 151.0625 148.566406 150.527344 C 148.191406 149.695312 147.839844 148.851562 147.457031 148.023438 C 146.46875 145.910156 145.761719 143.738281 145.875 141.351562 C 145.910156 140.667969 145.894531 139.917969 145.648438 139.296875 C 144.886719 137.351562 144.046875 135.4375 143.160156 133.546875 C 141.8125 130.667969 139.453125 128.5625 137.402344 126.234375 C 136.460938 125.167969 135.136719 124.445312 134.078125 123.46875 C 131.457031 121.042969 128.484375 119.191406 125.246094 117.726562 C 124.957031 117.59375 124.757812 117.253906 124.519531 117.007812 C 123.691406 117.160156 122.960938 116.902344 122.226562 116.527344 C 120.285156 115.53125 118.375 114.460938 116.183594 114.074219 C 115.546875 113.960938 115.136719 113.5625 115.203125 112.839844 C 114.625 113.605469 113.863281 113.605469 113.042969 113.359375 C 112.476562 113.191406 111.917969 112.921875 111.34375 112.875 C 109.261719 112.714844 107.175781 112.605469 105.085938 112.519531 C 100.296875 112.316406 95.585938 113.039062 90.875 113.757812 C 90.5625 113.808594 90.226562 113.710938 89.628906 113.65625 C 90.171875 113.238281 90.445312 112.996094 90.753906 112.796875 C 93.316406 111.132812 95.878906 109.46875 98.460938 107.828125 C 99.730469 107.019531 101.070312 106.476562 102.628906 106.316406 C 105.242188 106.042969 107.855469 105.496094 110.1875 104.261719 C 113.023438 102.753906 116.015625 102.21875 119.15625 102.136719 C 120.007812 102.113281 120.855469 101.953125 121.703125 101.886719 C 123.304688 101.757812 124.902344 101.5625 126.503906 101.554688 C 128.050781 101.542969 129.597656 101.804688 131.148438 101.820312 C 133.242188 101.839844 135.339844 101.695312 137.277344 102.761719 C 137.828125 103.066406 138.4375 103.289062 139.046875 103.457031 C 141.398438 104.109375 143.246094 105.457031 144.832031 107.296875 C 145.460938 108.019531 146.355469 108.574219 147.609375 108.785156 C 147.1875 107.945312 146.867188 107.304688 146.550781 106.667969 C 146.550781 106.667969 146.546875 106.671875 146.546875 106.671875 C 146.429688 106.582031 146.3125 106.492188 146.191406 106.398438 C 144.824219 104.636719 143.171875 103.226562 141.136719 102.277344 C 140.457031 101.960938 139.84375 101.507812 139.191406 101.132812 C 136.613281 99.636719 133.726562 99.128906 130.863281 98.554688 C 130.8125 98.542969 130.757812 98.570312 130.703125 98.578125 C 129.90625 99.03125 129.101562 99.324219 128.148438 99.003906 C 127.765625 98.875 127.265625 98.859375 126.878906 98.988281 C 123.976562 99.941406 120.972656 99.78125 117.984375 99.925781 C 114.890625 100.078125 111.792969 100.480469 109.007812 102.039062 C 107.003906 103.160156 104.777344 103.582031 102.585938 104.003906 C 100.0625 104.484375 97.820312 105.347656 95.800781 106.984375 C 93.515625 108.832031 91.0625 110.46875 88.691406 112.203125 C 88.386719 112.425781 88.0625 112.644531 87.835938 112.933594 C 86.800781 114.273438 85.410156 114.785156 83.769531 114.789062 C 83.402344 114.792969 83.03125 114.980469 82.671875 114.949219 C 82.496094 114.9375 82.347656 114.613281 82.191406 114.429688 C 82.089844 114.550781 82.011719 114.734375 81.882812 114.785156 C 80.195312 115.429688 78.5 116.054688 76.808594 116.683594 C 75.851562 117.4375 74.894531 118.1875 73.9375 118.941406 C 73.644531 119.171875 73.320312 119.378906 73.0625 119.644531 C 71.148438 121.628906 68.835938 123.058594 66.417969 124.304688 C 64.351562 125.371094 62.476562 126.664062 60.808594 128.289062 C 60.328125 128.753906 59.652344 129.015625 59.0625 129.367188 C 58.28125 130.183594 57.546875 131.03125 57.355469 132.207031 C 57.367188 132.316406 57.359375 132.429688 57.386719 132.53125 C 57.46875 132.820312 57.566406 133.101562 57.65625 133.390625 C 57.890625 133.214844 58.242188 133.089844 58.339844 132.855469 C 58.78125 131.800781 59.621094 131.171875 60.523438 130.558594 C 61.445312 129.925781 62.308594 129.207031 63.199219 128.527344 C 64.007812 127.910156 64.769531 127.214844 65.636719 126.691406 C 67.789062 125.386719 69.988281 124.160156 72.167969 122.898438 C 72.355469 122.792969 72.527344 122.664062 72.707031 122.546875 C 74.59375 121.324219 76.429688 120.015625 78.382812 118.914062 C 79.582031 118.238281 80.921875 117.660156 82.265625 117.429688 C 85.105469 116.945312 87.988281 116.726562 90.851562 116.382812 C 92.761719 116.152344 94.664062 115.886719 96.574219 115.664062 C 98.324219 115.457031 100.074219 115.1875 101.832031 115.132812 C 103.375 115.089844 104.925781 115.335938 106.472656 115.402344 C 108.933594 115.511719 111.375 115.734375 113.765625 116.386719 C 115.726562 116.921875 117.699219 117.398438 119.425781 118.546875 C 119.871094 118.84375 120.359375 119.074219 120.839844 119.300781 C 122.285156 119.992188 123.816406 120.542969 125.171875 121.375 C 128.183594 123.226562 131.121094 125.199219 134.058594 127.164062 C 134.628906 127.542969 135.105469 128.089844 135.578125 128.597656 C 136.417969 129.5 137.28125 130.390625 138.035156 131.367188 C 138.980469 132.589844 139.886719 133.859375 140.699219 135.179688 C 141.25 136.085938 141.492188 137.191406 142.082031 138.066406 C 143.175781 139.675781 143.304688 141.425781 143.335938 143.289062 C 143.378906 145.957031 144.167969 148.457031 145.5 150.78125 C 146.871094 153.167969 147.160156 155.765625 146.679688 158.414062 C 146.339844 160.304688 145.8125 162.171875 145.214844 164 C 144.433594 166.398438 143.652344 168.8125 142.605469 171.097656 C 141.21875 174.128906 139.585938 177.042969 138.046875 180.003906 C 137.847656 180.382812 137.613281 180.75 137.351562 181.085938 C 135.375 183.621094 133.414062 186.171875 131.390625 188.664062 C 130.65625 189.566406 129.773438 190.351562 128.929688 191.15625 C 127.257812 192.75 125.457031 194.222656 123.90625 195.925781 C 122.46875 197.5 120.910156 198.660156 118.878906 199.421875 C 115.15625 200.820312 111.296875 201.640625 107.472656 202.613281 C 106.492188 202.863281 105.472656 202.953125 104.476562 203.132812 C 102.6875 203.453125 100.90625 203.808594 99.117188 204.105469 C 97.90625 204.308594 96.683594 204.433594 95.46875 204.601562 C 94.363281 204.753906 93.261719 204.9375 92.152344 205.066406 C 90.71875 205.238281 89.277344 205.320312 87.851562 205.53125 C 86.320312 205.753906 84.8125 206.214844 83.277344 206.320312 C 81.476562 206.441406 79.660156 206.570312 77.894531 205.761719 C 76.832031 205.273438 75.671875 204.679688 74.394531 205.167969 C 76.785156 207.453125 79.617188 208.71875 82.9375 208.585938 C 84.960938 208.503906 86.96875 208.140625 88.988281 207.914062 C 90.789062 207.710938 92.644531 207.722656 94.386719 207.28125 C 96.890625 206.644531 99.453125 206.484375 101.960938 205.949219 C 103.742188 205.425781 105.496094 204.792969 107.304688 204.40625 C 110.164062 203.796875 113.054688 203.339844 115.933594 202.847656 C 118.082031 202.480469 120.234375 202.167969 122.382812 201.800781 C 123.113281 201.679688 123.90625 201.613281 124.535156 201.269531 C 126.382812 200.261719 128.390625 199.789062 130.386719 199.253906 C 130.492188 199.140625 130.597656 199.03125 130.703125 198.917969 C 132.796875 197.605469 135.082031 196.785156 137.5 196.316406 C 138.800781 195.507812 140.113281 194.710938 141.40625 193.882812 C 143.683594 192.425781 145.953125 190.957031 148.21875 189.484375 Z M 172.53125 175.121094 C 172.335938 175.308594 172.171875 175.390625 172.121094 175.519531 C 171.371094 177.347656 170.378906 179.0625 170.027344 181.074219 C 169.730469 182.746094 168.925781 184.328125 168.582031 186 C 168.164062 188.042969 167.300781 189.898438 166.207031 191.574219 C 164.714844 193.859375 163.0625 196.054688 160.984375 197.894531 C 159.136719 199.535156 157.382812 201.277344 155.582031 202.964844 C 153.492188 204.925781 150.984375 206.140625 148.269531 206.882812 C 147.046875 207.214844 145.710938 207.113281 144.457031 207.355469 C 142.832031 207.667969 141.148438 207.992188 140.417969 209.820312 C 140.992188 209.734375 141.589844 209.722656 142.136719 209.546875 C 143.890625 208.988281 145.652344 208.554688 147.507812 208.605469 C 147.878906 208.617188 148.265625 208.574219 148.617188 208.464844 C 151.398438 207.597656 154.128906 206.566406 156.382812 204.675781 C 158.972656 202.503906 161.425781 200.171875 163.9375 197.910156 C 165.925781 196.117188 167.25 193.8125 168.546875 191.546875 C 170.179688 188.6875 170.582031 185.363281 171.507812 182.234375 C 171.246094 181.214844 171.40625 180.203125 171.867188 179.304688 C 172.214844 178.625 171.601562 177.628906 172.597656 177.207031 C 172.667969 176.824219 172.734375 176.445312 172.800781 176.066406 C 172.71875 175.777344 172.636719 175.492188 172.53125 175.121094 Z M 64.367188 115.699219 C 65.191406 114.582031 65.964844 113.363281 67.007812 112.488281 C 69.632812 110.296875 72.460938 108.347656 75.085938 106.15625 C 77.046875 104.515625 79.140625 102.960938 80.441406 100.652344 C 80.570312 100.421875 80.816406 100.261719 80.964844 100.042969 C 81.703125 98.960938 82.921875 98.59375 83.972656 97.984375 C 85.6875 96.984375 87.410156 96.003906 89.109375 94.988281 C 89.84375 94.550781 90.554688 94.070312 91.238281 93.554688 C 91.832031 93.105469 91.363281 92.859375 90.988281 92.625 C 90.464844 92.683594 89.898438 92.636719 89.417969 92.824219 C 87.171875 93.691406 84.972656 94.664062 83.097656 96.238281 C 82.480469 96.753906 81.761719 97.144531 81.160156 97.671875 C 80.441406 98.296875 79.71875 98.949219 79.128906 99.695312 C 76.550781 102.960938 73.507812 105.710938 70.136719 108.125 C 68.964844 108.96875 67.777344 109.808594 66.703125 110.773438 C 64.921875 112.375 63.527344 114.261719 63.070312 116.699219 C 63.8125 116.757812 64.011719 116.179688 64.367188 115.699219 Z M 102.011719 69.835938 C 102.066406 70.777344 102.449219 71.710938 102.742188 72.625 C 102.984375 73.378906 103.519531 73.910156 104.285156 74.15625 C 104.789062 74.320312 105.257812 73.941406 105.035156 73.507812 C 104.242188 71.972656 104.65625 70.339844 104.75 68.730469 C 104.46875 66.289062 104.28125 63.835938 103.859375 61.421875 C 103.703125 60.535156 103.058594 59.703125 102.515625 58.933594 C 102.183594 58.457031 101.785156 58.632812 101.671875 59.234375 C 101.632812 59.445312 101.636719 59.664062 101.644531 59.878906 C 101.753906 63.199219 101.820312 66.519531 102.011719 69.835938 Z M 112.613281 70.398438 C 112.617188 70.921875 112.742188 71.460938 112.921875 71.949219 C 113.015625 72.203125 113.347656 72.371094 113.574219 72.574219 C 113.804688 72.320312 114.105469 72.101562 114.238281 71.804688 C 114.414062 71.425781 114.515625 70.988281 114.539062 70.570312 C 114.671875 68.328125 114.835938 66.085938 114.867188 63.839844 C 114.890625 61.800781 114.589844 59.792969 113.890625 57.859375 C 113.609375 57.371094 113.21875 57.078125 112.628906 57.125 C 112.285156 58.5 112.597656 59.878906 112.597656 61.257812 C 112.597656 64.304688 112.585938 67.351562 112.613281 70.398438 Z M 112.613281 70.398438 " fill-opacity="1" fill-rule="nonzero"/><path fill="#653d2c" d="M 103.851562 163.085938 C 102.253906 163.648438 101.476562 165.027344 100.402344 166.128906 C 99.621094 166.929688 98.871094 167.800781 97.957031 168.421875 C 96.109375 169.675781 94.203125 169.484375 92.496094 168.066406 C 92.125 167.761719 91.773438 167.429688 91.40625 167.117188 C 89.007812 165.113281 88.976562 163.769531 89.839844 161.269531 C 90.515625 159.3125 90.882812 157.394531 91.027344 155.324219 C 91.257812 152.035156 93.722656 150.265625 96.71875 151.210938 C 100.351562 152.359375 103.328125 154.507812 104.78125 158.257812 C 105.046875 158.945312 105.167969 159.6875 105.359375 160.40625 C 105.339844 161.621094 105.007812 162.679688 103.851562 163.085938 Z M 74.929688 149.777344 C 75.574219 149.085938 76.199219 148.324219 76.972656 147.800781 C 78.773438 146.574219 79.351562 145.125 78.785156 143.003906 C 78.332031 141.316406 77.421875 139.957031 75.988281 139.011719 C 74.660156 138.140625 73.28125 137.667969 71.621094 138.359375 C 70.972656 138.628906 70.269531 138.757812 69.878906 139.351562 C 69.117188 140.496094 68.152344 141.386719 66.972656 142.066406 C 66.792969 142.167969 66.625 142.332031 66.519531 142.507812 C 65.292969 144.542969 64.207031 146.628906 64.195312 149.429688 C 64.21875 149.574219 64.285156 150.050781 64.382812 150.519531 C 64.910156 153.089844 67.1875 154.382812 69.53125 153.207031 C 71.425781 152.253906 73.425781 151.390625 74.929688 149.777344 Z M 76.730469 171.765625 C 75.808594 171.097656 74.863281 170.746094 73.75 170.769531 C 72.449219 170.71875 71.070312 171.121094 70.425781 172.0625 C 69.25 173.78125 68.683594 175.722656 69.308594 178.003906 C 69.765625 179.675781 71.371094 180.5625 71.644531 182.261719 C 71.695312 182.566406 72.253906 182.929688 72.628906 183.007812 C 73.847656 183.253906 74.242188 184.054688 74.433594 185.160156 C 74.523438 185.648438 74.785156 186.339844 75.15625 186.5 C 76.523438 187.097656 77.910156 187.628906 79.316406 186.335938 C 80.160156 185.554688 80.761719 184.671875 80.894531 183.621094 C 81.125 181.777344 81.144531 179.910156 81.214844 178.050781 C 81.226562 177.75 81.027344 177.441406 80.921875 177.136719 C 80.136719 174.867188 78.664062 173.160156 76.730469 171.765625 Z M 96.375 130.445312 C 96.316406 131.394531 96.382812 132.21875 96.679688 133.09375 C 97.003906 134.054688 97.175781 135.066406 97.492188 136.035156 C 97.636719 136.472656 97.863281 137.011719 98.222656 137.230469 C 100.773438 138.820312 103.425781 139.78125 106.402344 138.269531 C 107.617188 137.65625 108.320312 136.769531 108.402344 135.394531 C 108.460938 134.378906 108.679688 133.355469 108.59375 132.355469 C 108.519531 131.535156 108.242188 130.660156 107.8125 129.960938 C 107.253906 129.054688 106.46875 128.285156 105.746094 127.488281 C 104.878906 126.539062 103.855469 126.140625 102.554688 126.585938 C 102.011719 126.773438 101.402344 126.769531 100.824219 126.855469 C 98.140625 126.699219 96.539062 127.664062 96.375 130.445312 Z M 124.171875 169.910156 C 123.21875 169.058594 122.242188 168.300781 120.960938 167.90625 C 119.554688 167.472656 117.617188 168.105469 117.210938 169.515625 C 116.808594 170.914062 115.992188 171.964844 115.101562 173.054688 C 113.917969 174.503906 112.921875 176.113281 112.96875 178.117188 C 112.96875 178.332031 112.957031 178.546875 112.96875 178.761719 C 113.039062 180.269531 113.3125 180.527344 114.816406 180.835938 C 116.441406 181.171875 117.664062 180.316406 118.640625 179.316406 C 119.40625 178.53125 120.097656 178.394531 121.046875 178.570312 C 121.386719 178.632812 121.8125 178.679688 122.09375 178.535156 C 123.503906 177.800781 124.796875 176.851562 125.058594 175.179688 C 125.292969 173.675781 125.28125 172.113281 124.792969 170.628906 C 124.703125 170.347656 124.40625 170.125 124.171875 169.910156 Z M 130.953125 154.710938 C 132.75 155.449219 134.953125 154.003906 134.824219 152.035156 C 134.679688 149.773438 134.214844 147.527344 132.675781 145.753906 C 131.601562 144.515625 130.339844 143.429688 129.121094 142.324219 C 128.820312 142.054688 128.324219 141.789062 127.960938 141.839844 C 126.296875 142.078125 124.039062 143.464844 124.253906 145.570312 C 124.261719 146.402344 125.6875 150.015625 126.261719 150.5625 C 126.53125 150.8125 126.90625 150.949219 127.179688 151.195312 C 127.761719 151.722656 128.449219 152.207031 128.828125 152.859375 C 129.347656 153.757812 130.035156 154.332031 130.953125 154.710938 Z M 109.773438 189.542969 C 107.726562 189.589844 105.917969 190.023438 104.214844 190.828125 C 103.914062 190.972656 103.660156 191.425781 103.585938 191.777344 C 103.484375 192.234375 103.609375 192.734375 103.597656 193.214844 C 103.574219 193.972656 103.964844 194.441406 104.628906 194.664062 C 105.132812 194.835938 105.664062 194.992188 106.1875 195.007812 C 108.527344 195.078125 110.574219 194.210938 112.429688 192.863281 C 113.199219 192.300781 113.164062 191.171875 112.402344 190.503906 C 111.613281 189.816406 110.722656 189.347656 109.773438 189.542969 Z M 83.265625 128.425781 C 81.300781 128.46875 79.964844 129.917969 79.996094 131.96875 C 80.015625 133.207031 81.511719 134.527344 82.84375 134.480469 C 84.511719 134.425781 85.90625 133.027344 85.816406 131.5 C 85.734375 130.074219 84.347656 128.402344 83.265625 128.425781 Z M 113.542969 147.757812 C 114.476562 148.359375 115.449219 148.96875 116.488281 149.308594 C 117.84375 149.75 119.058594 148.699219 119.101562 146.953125 C 119.183594 145.617188 117.992188 144.648438 117.109375 143.53125 C 117.015625 143.417969 116.707031 143.398438 116.527344 143.441406 C 115.800781 143.625 115.085938 143.839844 114.371094 144.058594 C 113.246094 144.40625 112.523438 147.101562 113.542969 147.757812 Z M 94.367188 176.574219 C 92.878906 176.738281 91.976562 177.582031 91.988281 179.003906 C 92 180.3125 93.097656 181.40625 94.363281 181.375 C 95.363281 181.351562 96.449219 180.367188 96.417969 179.511719 C 96.285156 177.972656 95.160156 176.488281 94.367188 176.574219 Z M 139 111.878906 C 138.660156 111.925781 138.21875 112.039062 138.027344 112.28125 C 136.8125 113.808594 136.949219 115.101562 138.398438 116.511719 C 138.589844 116.699219 138.78125 116.886719 138.980469 117.070312 C 139.625 117.660156 140.109375 118.273438 140.125 119.257812 C 140.140625 120.207031 141.566406 121.449219 142.390625 121.460938 C 144.046875 121.492188 145.1875 120.800781 145.492188 119.519531 C 145.601562 119.054688 145.574219 118.554688 145.605469 118.074219 C 145.84375 115.027344 143 111.339844 139 111.878906 Z M 151.734375 158.714844 C 153.355469 158.71875 154.792969 158.222656 155.136719 156.503906 C 155.355469 155.398438 155.300781 154.074219 154.886719 153.039062 C 153.988281 150.789062 153.386719 150.78125 151.113281 151.160156 C 150.644531 151.238281 150.207031 151.488281 149.753906 151.660156 C 149.164062 153.910156 149.464844 156.152344 149.808594 158.394531 C 150.277344 159 150.832031 158.515625 151.347656 158.519531 C 151.476562 158.585938 151.605469 158.652344 151.734375 158.714844 Z M 151.777344 130.824219 C 152.8125 131.3125 154.507812 131.183594 155.097656 130.597656 C 155.757812 129.941406 155.78125 128.441406 155.128906 127.257812 C 154.875 126.792969 154.566406 126.359375 154.316406 125.894531 C 153.753906 124.867188 152.96875 124.195312 151.421875 124.144531 C 150.605469 123.921875 150.007812 124.566406 149.617188 125.484375 C 148.667969 127.726562 149.046875 129.535156 151.777344 130.824219 Z M 116.183594 114.074219 C 118.378906 114.460938 120.289062 115.53125 122.230469 116.523438 C 122.964844 116.902344 123.691406 117.160156 124.523438 117.007812 C 124.582031 116.34375 124.929688 115.488281 124.640625 115.054688 C 123.949219 114.019531 123.105469 112.902344 122.046875 112.335938 C 120.824219 111.679688 119.316406 111.535156 117.914062 111.246094 C 116.578125 110.96875 115.625 111.480469 115.203125 112.835938 C 115.136719 113.5625 115.546875 113.960938 116.183594 114.074219 Z M 130.703125 198.914062 C 130.597656 199.027344 130.488281 199.140625 130.378906 199.257812 C 130.378906 199.257812 130.402344 199.246094 130.402344 199.246094 C 130.207031 199.738281 129.855469 200.234375 129.859375 200.726562 C 129.863281 201.417969 128.734375 201.851562 129.417969 202.585938 C 129.917969 203.121094 130.507812 203.722656 131.171875 203.925781 C 132.164062 204.230469 133.296875 204.441406 134.21875 203.636719 C 135.132812 202.835938 136.039062 202.019531 136.871094 201.136719 C 138.46875 199.4375 138.574219 198.40625 137.5 196.3125 C 135.082031 196.78125 132.796875 197.597656 130.703125 198.914062 Z M 155.933594 183.011719 C 155.625 183.074219 155.207031 183.03125 155.023438 183.214844 C 153.652344 184.601562 152 185.738281 151.097656 187.546875 C 151.171875 187.804688 151.273438 188.054688 151.316406 188.316406 C 151.648438 190.265625 152.234375 190.804688 154.113281 190.832031 C 154.753906 190.839844 155.398438 190.847656 156.03125 190.789062 C 157.191406 190.683594 158.246094 189.730469 158.140625 188.597656 C 157.957031 186.550781 157.847656 184.402344 155.933594 183.011719 Z M 165.890625 178.910156 C 164.679688 178.058594 163.933594 178.148438 162.558594 179.066406 C 161.996094 179.441406 161.328125 179.925781 161.589844 180.539062 C 161.867188 181.191406 161.933594 182.066406 162.894531 182.402344 C 164.613281 183.003906 166.410156 181.910156 166.519531 179.761719 C 166.40625 179.601562 166.226562 179.144531 165.890625 178.910156 Z M 82.191406 114.429688 C 82.121094 114.011719 82.074219 113.589844 81.96875 113.183594 C 81.785156 112.445312 81.355469 111.894531 80.550781 111.890625 C 79.460938 111.886719 78.285156 111.539062 77.359375 112.457031 C 77.222656 112.59375 77.148438 112.835938 77.128906 113.035156 C 77.011719 114.25 76.914062 115.464844 76.808594 116.683594 C 78.503906 116.050781 80.195312 115.425781 81.882812 114.78125 C 82.011719 114.734375 82.089844 114.550781 82.191406 114.429688 Z M 93.855469 102.789062 C 94.066406 102.820312 94.28125 102.8125 94.496094 102.824219 C 94.523438 102.890625 94.554688 102.960938 94.582031 103.027344 C 95.503906 102.640625 96.464844 102.332031 97.328125 101.847656 C 98.132812 101.398438 98.292969 100.234375 97.804688 99.445312 C 96.945312 98.066406 96.410156 97.855469 94.75 98.238281 C 94.390625 98.320312 94.027344 98.40625 93.667969 98.507812 C 92.511719 98.839844 91.5625 100.113281 91.644531 101.214844 C 91.691406 101.847656 92.765625 102.621094 93.855469 102.789062 Z M 93.855469 102.789062 " fill-opacity="1" fill-rule="nonzero"/></svg>