<svg xmlns="http://www.w3.org/2000/svg" xmlns:xlink="http://www.w3.org/1999/xlink" width="300" zoomAndPan="magnify" viewBox="0 0 224.87999 225" height="300" preserveAspectRatio="xMidYMid meet" version="1.0"><defs><clipPath id="4726dbcca1"><path d="M 51.164062 2 L 173 2 L 173 221 L 51.164062 221 Z M 51.164062 2 " clip-rule="nonzero"/></clipPath></defs><g clip-path="url(#4726dbcca1)"><path fill="#bde2f2" d="M 51.6875 31.105469 L 61.320312 190.324219 C 61.742188 197.246094 66.855469 205.839844 72.734375 209.5 C 97.015625 224.617188 130.484375 224.636719 152.0625 209.933594 C 157.785156 206.035156 162.773438 197.246094 163.191406 190.324219 L 172.824219 31.105469 C 173.242188 24.183594 168.535156 16.089844 162.3125 13.046875 C 133.628906 -0.984375 92.765625 -0.964844 62.300781 13.253906 C 56.023438 16.183594 51.269531 24.183594 51.6875 31.105469 Z M 51.6875 31.105469 " fill-opacity="1" fill-rule="nonzero"/></g><path fill="#e5dfc3" d="M 156.851562 184.472656 C 156.484375 190.535156 152.121094 198.226562 147.105469 201.644531 C 128.21875 214.515625 98.910156 214.496094 77.652344 201.261719 C 72.503906 198.058594 68.027344 190.535156 67.660156 184.472656 L 61.421875 81.375 C 61.074219 75.605469 65.023438 68.914062 70.238281 66.441406 C 94.171875 55.097656 128.503906 55.117188 154.183594 66.640625 C 159.449219 69.003906 163.441406 75.605469 163.089844 81.375 Z M 156.851562 184.472656 " fill-opacity="1" fill-rule="nonzero"/><path fill="#85c7e3" d="M 112.355469 3.910156 C 111.863281 3.902344 111.363281 3.902344 110.863281 3.902344 C 79.710938 3.902344 54.417969 13.285156 54.417969 24.84375 C 54.417969 36.402344 79.710938 45.789062 110.863281 45.789062 C 142.019531 45.789062 167.3125 36.402344 167.3125 24.84375 C 167.3125 24.558594 167.296875 24.269531 167.273438 23.984375 C 166.050781 34.234375 142.261719 42.421875 113.132812 42.421875 C 83.230469 42.421875 58.953125 33.792969 58.953125 23.160156 C 58.953125 12.625 82.808594 4.050781 112.355469 3.910156 Z M 112.355469 3.910156 " fill-opacity="1" fill-rule="nonzero"/><path fill="#f9f8f2" d="M 61.742188 76.621094 C 61.742188 67.265625 84.375 57.964844 112.257812 57.964844 C 140.136719 57.964844 162.773438 67.265625 162.773438 76.621094 C 162.773438 85.976562 140.136719 93.570312 112.257812 93.570312 C 84.375 93.570312 61.742188 85.976562 61.742188 76.621094 Z M 61.742188 76.621094 " fill-opacity="1" fill-rule="nonzero"/><path fill="#ffffff" d="M 61.402344 37.410156 C 63.484375 97.097656 66.300781 148.125 69.664062 190.300781 C 72.226562 196.386719 77.539062 201.6875 81.59375 202.867188 L 80.117188 45.789062 C 69.976562 43.171875 63.757812 41.796875 61.402344 37.410156 Z M 61.402344 37.410156 " fill-opacity="0.79" fill-rule="nonzero"/></svg>